:SAMPLES-PER-SECOND 30
:FULLY-SPECIFIED
:DEGREES
623
root  39.1481 33.3284 -76.5692 11.4598 -4.16283 1.34885
RightUpLeg  -24.6842 -23.8507 2.41743
RightLeg  18.983 -0.259787 -0.0719261
RightFoot  4.55633 0.0193927 -0.0972649
RightToes  -35.1492 -0.184195 -0.289507
Spine  7.70215 -2.66077 3.47969
Spine1  14.2832 -5.29224 4.85828
HEad  4.7593 -26.7532 37.7225
LeftShoulder1  0 -2.42657e-020 -4.95415e-022
LeftArm  -18.2481 -1.84024 -96.8569
LeftForeArm  54.9096 -26.9447 -5.09997
LeftHand  1.22905 -13.7581 -10.5364
RightShoulder  0 2.42657e-020 1.07489e-018
RightArm  -84.7828 6.60016 82.4887
RightForeArm  -24.2155 26.7055 5.01955
RightHand  6.11207 19.5842 34.7585
LeftUpLeg  -25.5317 19.2644 4.24931
LeftLeg  32.3928 2.02615 1.10535
LeftFoot  0.721577 0.00167032 -0.265265
LeftToes  -21.0015 2.34596e-006 -6.06653e-008
624
root  39.0783 33.3861 -76.6415 11.7018 -5.42757 2.17955
RightUpLeg  -25.0418 -22.36 1.71431
RightLeg  18.5691 -0.632741 -0.168844
RightFoot  4.95052 0.0249933 -0.158743
RightToes  -35.2925 -0.183095 -0.289182
Spine  8.0489 -2.66977 3.38725
Spine1  14.9242 -5.32229 4.79152
HEad  3.85994 -26.7399 37.4849
LeftShoulder1  0 -2.42657e-020 -4.95415e-022
LeftArm  -17.0175 -2.49686 -97.2667
LeftForeArm  54.443 -28.1678 -5.37659
LeftHand  1.24163 -13.7647 -10.6349
RightShoulder  0 2.42657e-020 1.07489e-018
RightArm  -84.6362 6.78359 80.9637
RightForeArm  -26.4819 27.3674 5.16052
RightHand  6.02397 19.2804 34.8038
LeftUpLeg  -28.2133 14.9024 1.50632
LeftLeg  33.4032 1.04936 0.594784
LeftFoot  0.319975 -0.000204013 -0.26574
LeftToes  -21.7168 2.34596e-006 -6.06653e-008
625
root  39.0179 33.4273 -76.7228 12.1052 -7.88631 2.97885
RightUpLeg  -26.0411 -20.0971 1.09464
RightLeg  18.6014 -0.738445 -0.197392
RightFoot  5.19039 0.0284538 -0.185558
RightToes  -34.9192 -0.182099 -0.289122
Spine  8.38841 -2.19082 3.17222
Spine1  15.5768 -4.32527 4.50902
HEad  3.40277 -26.839 36.8075
LeftShoulder1  0 -2.42657e-020 -4.95415e-022
LeftArm  -16.4772 -3.03428 -97.2724
LeftForeArm  53.2753 -29.2528 -5.62904
LeftHand  1.07951 -13.3387 -9.58724
RightShoulder  0 2.42657e-020 1.07489e-018
RightArm  -86.0764 7.58639 79.4823
RightForeArm  -26.5918 27.5079 5.19171
RightHand  6.23175 19.7247 35.1532
LeftUpLeg  -30.5471 11.5455 -0.999895
LeftLeg  32.3312 0.446611 0.239933
LeftFoot  -0.125769 -0.00221623 -0.240039
LeftToes  -21.5707 2.34596e-006 -6.06653e-008
626
root  38.9826 33.4393 -76.7849 12.6778 -10.1276 3.34203
RightUpLeg  -27.1236 -18.2286 0.914113
RightLeg  18.6148 -0.588944 -0.157729
RightFoot  5.50744 0.0300705 -0.183165
RightToes  -34.5838 -0.181331 -0.289268
Spine  8.67704 -1.70888 3.11511
Spine1  16.1387 -3.30886 4.47887
HEad  3.50385 -27.0064 35.7831
LeftShoulder1  0 -2.42657e-020 -4.95415e-022
LeftArm  -16.3858 -3.47367 -96.96
LeftForeArm  51.9373 -30.0919 -5.82892
LeftHand  0.903096 -12.8787 -8.36324
RightShoulder  0 2.42657e-020 1.07489e-018
RightArm  -86.3041 7.95874 77.9827
RightForeArm  -28.1817 27.9963 5.29721
RightHand  6.17733 19.7192 34.8762
LeftUpLeg  -32.7396 7.161 -2.31133
LeftLeg  29.8275 0.839936 0.4086
LeftFoot  -0.42223 -0.00300018 -0.214332
LeftToes  -21.0609 2.34596e-006 -6.06653e-008
627
root  38.9439 33.4186 -76.8012 13.2408 -12.6148 3.36331
RightUpLeg  -28.042 -16.6842 1.09407
RightLeg  18.4131 0.216726 0.0563475
RightFoot  5.92512 0.0266325 -0.102572
RightToes  -34.5221 -0.180913 -0.289562
Spine  9.03117 -1.16245 3.11941
Spine1  16.8443 -2.0921 4.39253
HEad  4.29959 -26.703 34.5827
LeftShoulder1  0 -2.42657e-020 -4.95415e-022
LeftArm  -16.9152 -3.80578 -96.1994
LeftForeArm  51.0508 -30.7624 -5.99073
LeftHand  0.762873 -12.4426 -7.36354
RightShoulder  0 2.42657e-020 1.07489e-018
RightArm  -86.6486 8.74932 76.7668
RightForeArm  -29.1433 28.1844 5.33703
RightHand  6.14677 19.6774 34.7853
LeftUpLeg  -34.6727 3.1226 -2.58007
LeftLeg  26.7377 0.60914 0.256008
LeftFoot  -1.08885 -0.00245834 -0.195073
LeftToes  -20.0182 2.34596e-006 -6.06653e-008
628
root  38.8744 33.3679 -76.8155 14.1876 -15.5115 2.93117
RightUpLeg  -28.8766 -14.1081 1.54546
RightLeg  17.5814 0.485572 0.119846
RightFoot  6.69597 0.0258733 -0.0647214
RightToes  -34.9035 -0.18097 -0.289942
Spine  9.28428 -0.496964 3.12997
Spine1  17.4032 -0.575735 4.18866
HEad  5.70271 -26.0596 33.3289
LeftShoulder1  0 -2.42657e-020 -4.95415e-022
LeftArm  -17.7019 -3.89703 -94.9124
LeftForeArm  50.442 -31.2307 -6.10507
LeftHand  0.666513 -11.9719 -6.7238
RightShoulder  0 2.42657e-020 1.07489e-018
RightArm  -86.8866 9.7267 76.0582
RightForeArm  -29.9999 28.0367 5.30097
RightHand  6.24653 20.0364 34.7101
LeftUpLeg  -36.3937 0.283267 -2.04612
LeftLeg  22.9543 -0.223196 -0.0807863
LeftFoot  -1.95622 -0.00264963 -0.155203
LeftToes  -20.6548 2.34596e-006 -6.06653e-008
629
root  38.8051 33.2859 -76.7638 15.1608 -18.5903 2.11652
RightUpLeg  -29.5714 -12.0705 2.41262
RightLeg  16.8905 1.47673 0.346476
RightFoot  7.31316 0.0167956 0.0762244
RightToes  -35.0933 -0.181624 -0.290351
Spine  9.49198 0.147876 3.14814
Spine1  17.8989 0.931293 3.89451
HEad  7.6399 -25.1649 31.7705
LeftShoulder1  0 -2.42657e-020 -4.95415e-022
LeftArm  -18.6995 -3.81779 -93.2888
LeftForeArm  50.1332 -31.1272 -6.08053
LeftHand  0.602187 -11.6118 -6.29082
RightShoulder  0 2.42657e-020 1.07489e-018
RightArm  -87.549 11.0694 75.8094
RightForeArm  -30.2713 27.1544 5.10193
RightHand  6.3405 20.3441 34.6907
LeftUpLeg  -37.3234 -2.52165 -0.423366
LeftLeg  19.4597 -1.39752 -0.397128
LeftFoot  -2.51213 -0.00204812 -0.0934192
LeftToes  -20.158 2.34596e-006 -6.06653e-008
630
root  38.7407 33.1746 -76.6657 16.1683 -21.7316 1.00241
RightUpLeg  -30.1319 -9.75124 3.27716
RightLeg  16.4747 2.42092 0.549605
RightFoot  7.71711 0.00717953 0.225516
RightToes  -35.424 -0.182999 -0.290728
Spine  9.61584 0.64665 3.18192
Spine1  18.2519 2.17478 3.49226
HEad  9.30016 -23.8217 30.0084
LeftShoulder1  0 -2.42657e-020 -4.95415e-022
LeftArm  -20.1156 -3.39 -91.4089
LeftForeArm  50.0356 -30.5844 -5.94989
LeftHand  0.583266 -11.3972 -6.21369
RightShoulder  0 2.42657e-020 1.07489e-018
RightArm  -88.3607 12.6682 76.4627
RightForeArm  -29.3856 26.3824 4.93372
RightHand  6.38566 20.7758 34.2298
LeftUpLeg  -37.5758 -4.00723 1.06252
LeftLeg  17.7746 -3.97429 -0.998925
LeftFoot  -3.04438 0.00175184 0.0659153
LeftToes  -20.5028 2.34596e-006 -6.06653e-008
631
root  38.7595 33.0843 -76.5539 17.36 -24.6942 0.343246
RightUpLeg  -31.4812 -7.71339 3.58924
RightLeg  16.9893 3.38403 0.799874
RightFoot  7.78879 -0.00256044 0.376716
RightToes  -35.9328 -0.186835 -0.291013
Spine  9.57106 0.912169 3.00813
Spine1  18.2031 2.97685 2.65373
HEad  9.94409 -22.0195 28.752
LeftShoulder1  0 -2.42657e-020 -4.95415e-022
LeftArm  -21.1605 -2.68069 -89.0876
LeftForeArm  49.9141 -29.7433 -5.75038
LeftHand  0.593378 -11.1551 -6.44452
RightShoulder  0 2.42657e-020 1.07489e-018
RightArm  -89.6436 14.3521 77.8885
RightForeArm  -28.567 25.456 4.73413
RightHand  6.48009 20.1687 35.694
LeftUpLeg  -38.0873 -6.31231 2.46997
LeftLeg  18.1747 -6.88008 -1.77569
LeftFoot  -4.62643 0.0171872 0.425464
LeftToes  -7.66522 2.34596e-006 -6.06653e-008
632
root  38.7892 33.0245 -76.4256 18.0938 -26.9415 -0.0650635
RightUpLeg  -32.5333 -5.98403 3.54893
RightLeg  17.8681 3.81755 0.963901
RightFoot  7.70149 -0.00752868 0.453837
RightToes  -36.0068 -0.189471 -0.291472
Spine  9.66348 0.851889 2.78435
Spine1  18.3234 3.10256 1.77179
HEad  9.10137 -20.3101 28.8017
LeftShoulder1  0 -2.42657e-020 -4.95415e-022
LeftArm  -21.7742 -2.63197 -86.6228
LeftForeArm  50.4626 -28.0834 -5.36515
LeftHand  0.59804 -11.0749 -6.53671
RightShoulder  0 2.42657e-020 1.07489e-018
RightArm  -88.4866 15.3293 79.9025
RightForeArm  -28.5833 25.226 4.68444
RightHand  6.22971 19.8727 34.894
LeftUpLeg  -39.0061 -8.22331 3.76258
LeftLeg  19.0372 -8.86583 -2.4257
LeftFoot  -3.00882 0.00930658 0.354351
LeftToes  -6.94189 2.34596e-006 -6.06653e-008
633
root  38.8465 33.0005 -76.2502 18.462 -28.5264 0.0341339
RightUpLeg  -33.302 -4.53096 2.90574
RightLeg  18.6983 3.7632 1.00802
RightFoot  7.36158 -0.00681472 0.442754
RightToes  -35.8581 -0.191586 -0.293258
Spine  9.73424 0.661813 2.41816
Spine1  18.3168 2.74832 1.11499
HEad  7.38095 -19.2504 29.1395
LeftShoulder1  0 -2.42657e-020 -4.95415e-022
LeftArm  -21.1982 -3.45877 -84.1561
LeftForeArm  51.7225 -25.5535 -4.80015
LeftHand  0.670784 -11.3109 -7.14017
RightShoulder  0 2.42657e-020 1.07489e-018
RightArm  -88.047 15.6977 81.9602
RightForeArm  -28.5332 25.156 4.66951
RightHand  6.1107 19.7387 34.4927
LeftUpLeg  -40.0236 -8.35529 3.83013
LeftLeg  20.9225 -10.1771 -3.14099
LeftFoot  -2.53923 0.00818687 0.369389
LeftToes  -8.67268 2.34596e-006 -6.06653e-008
